<?xml version="1.0" encoding="UTF-8"?>
<mxfile host="app.diagrams.net">
  <diagram name="Deployment Architecture" id="deployment-architecture">
    <mxGraphModel dx="1420" dy="794" grid="1" gridSize="10" guides="1" tooltips="1" connect="1" arrows="1" fold="1" page="1" pageScale="1" pageWidth="827" pageHeight="1169" math="0" shadow="0">
      <root>
        <mxCell id="0"/>
        <mxCell id="1" parent="0"/>

        <!-- Users -->
        <mxCell id="2" value="Users" style="shape=ellipse;whiteSpace=wrap;html=1;fillColor=#dae8fc;strokeColor=#6c8ebf;" vertex="1" parent="1">
          <mxGeometry x="300" y="40" width="120" height="60" as="geometry"/>
        </mxCell>

        <!-- Cloudflare -->
        <mxCell id="3" value="Cloudflare (DNS/CDN/WAF)" style="shape=cloud;whiteSpace=wrap;html=1;fillColor=#ffe6cc;strokeColor=#d79b00;" vertex="1" parent="1">
          <mxGeometry x="280" y="140" width="160" height="80" as="geometry"/>
        </mxCell>

        <!-- Load Balancer -->
        <mxCell id="4" value="AWS Load Balancer" style="shape=rhombus;whiteSpace=wrap;html=1;fillColor=#d5e8d4;strokeColor=#82b366;" vertex="1" parent="1">
          <mxGeometry x="120" y="280" width="160" height="80" as="geometry"/>
        </mxCell>

        <!-- Backend EC2 -->
        <mxCell id="5" value="Backend EC2 Instances" style="shape=rectangle;whiteSpace=wrap;html=1;fillColor=#fff2cc;strokeColor=#d6b656;" vertex="1" parent="1">
          <mxGeometry x="60" y="420" width="160" height="60" as="geometry"/>
        </mxCell>

        <!-- Database -->
        <mxCell id="6" value="RDS Database" style="shape=cylinder;whiteSpace=wrap;html=1;fillColor=#e1d5e7;strokeColor=#9673a6;" vertex="1" parent="1">
          <mxGeometry x="260" y="420" width="120" height="80" as="geometry"/>
        </mxCell>

        <!-- Frontend EC2 -->
        <mxCell id="7" value="Frontend EC2 Instance" style="shape=rectangle;whiteSpace=wrap;html=1;fillColor=#f8cecc;strokeColor=#b85450;" vertex="1" parent="1">
          <mxGeometry x="400" y="280" width="180" height="60" as="geometry"/>
        </mxCell>

        <!-- Edges -->
        <mxCell id="8" edge="1" parent="1" source="2" target="3">
          <mxGeometry relative="1" as="geometry"/>
        </mxCell>

        <mxCell id="9" edge="1" parent="1" source="3" target="4">
          <mxGeometry relative="1" as="geometry"/>
        </mxCell>

        <mxCell id="10" edge="1" parent="1" source="3" target="7">
          <mxGeometry relative="1" as="geometry"/>
        </mxCell>

        <mxCell id="11" edge="1" parent="1" source="4" target="5">
          <mxGeometry relative="1" as="geometry"/>
        </mxCell>

        <mxCell id="12" edge="1" parent="1" source="5" target="6">
          <mxGeometry relative="1" as="geometry"/>
        </mxCell>
      </root>
    </mxGraphModel>
  </diagram>
</mxfile>
